<svg id="visual" viewBox="0 0 900 600" width="900" height="600" xmlns="http://www.w3.org/2000/svg" xmlns:xlink="http://www.w3.org/1999/xlink" version="1.1"><g transform="translate(451.9451706777931 283.2288320543214)"><path d="M89.7 -160.5C116.8 -139.8 139.6 -116.8 155.1 -89.6C170.6 -62.5 178.8 -31.3 195 9.4C211.3 50 235.5 100 225.2 136.1C214.9 172.2 169.9 194.3 126.6 210.5C83.3 226.7 41.7 236.8 -0.3 237.4C-42.3 238 -84.7 229 -119.6 208C-154.5 187 -182.1 154 -195.2 117.3C-208.4 80.7 -207.2 40.3 -215.4 -4.7C-223.6 -49.8 -241.3 -99.7 -224.7 -130.4C-208.1 -161.2 -157.3 -172.8 -114.2 -184.2C-71 -195.6 -35.5 -206.8 -2.1 -203.2C31.3 -199.6 62.7 -181.2 89.7 -160.5" fill="#8c548d"></path></g></svg>