<svg id="visual" viewBox="0 0 900 600" width="900" height="600" xmlns="http://www.w3.org/2000/svg" xmlns:xlink="http://www.w3.org/1999/xlink" version="1.1"><g transform="translate(430.9447724261495 321.79793141362364)"><path d="M39.8 -86.3C51.2 -54.7 59.7 -42.9 84.3 -27.3C108.8 -11.7 149.4 7.8 147.3 21C145.1 34.2 100.1 41 73.3 53.1C46.5 65.1 37.9 82.5 19.7 105.4C1.4 128.3 -26.5 156.7 -50.9 157C-75.3 157.3 -96.2 129.4 -96.4 99.9C-96.7 70.3 -76.2 39.2 -73.9 14.4C-71.7 -10.4 -87.7 -28.9 -98.7 -61.8C-109.7 -94.7 -115.7 -142 -98.4 -170.9C-81.1 -199.9 -40.5 -210.4 -13.2 -190C14.2 -169.5 28.5 -118 39.8 -86.3" fill="#BB004B"></path></g></svg>