<svg id="visual" viewBox="0 0 900 600" width="900" height="600" xmlns="http://www.w3.org/2000/svg" xmlns:xlink="http://www.w3.org/1999/xlink" version="1.1"><g transform="translate(462.7635012218822 325.77925861891197)"><path d="M80.4 -123.3C112.6 -104.5 152.7 -96.3 149.9 -76.2C147.1 -56 101.4 -24 89.9 8.6C78.4 41.1 101.2 74.3 97 90.4C92.9 106.5 61.8 105.5 36.9 102C12 98.5 -6.7 92.4 -40.1 99.6C-73.6 106.7 -121.8 127 -143.3 116.3C-164.8 105.6 -159.6 63.9 -164.3 24.3C-169 -15.4 -183.7 -53 -169.6 -74.8C-155.4 -96.5 -112.6 -102.5 -79.5 -120.9C-46.5 -139.3 -23.2 -170.2 0.5 -170.9C24.1 -171.6 48.3 -142.2 80.4 -123.3" fill="#BB004B"></path></g></svg>