<svg id="visual" viewBox="0 0 900 600" width="900" height="600" xmlns="http://www.w3.org/2000/svg" xmlns:xlink="http://www.w3.org/1999/xlink" version="1.1"><g transform="translate(426.2009247651276 334.4452870378149)"><path d="M87.1 -160.8C95.6 -130.1 73.4 -76.7 84.9 -41.7C96.5 -6.6 141.8 10.1 161.6 38.6C181.4 67 175.7 107.2 150 121.3C124.3 135.3 78.5 123.3 47.5 107.9C16.4 92.4 0.2 73.6 -32.8 78.9C-65.9 84.3 -115.7 113.8 -124.4 106.4C-133.1 98.9 -100.7 54.4 -96.2 19.9C-91.6 -14.5 -114.9 -38.8 -120.2 -66.4C-125.5 -94 -112.8 -124.8 -89.7 -148.9C-66.7 -173.1 -33.3 -190.5 3 -195.2C39.3 -199.8 78.6 -191.6 87.1 -160.8" fill="#BB004B"></path></g></svg>