<svg id="visual" viewBox="0 0 900 600" width="900" height="600" xmlns="http://www.w3.org/2000/svg" xmlns:xlink="http://www.w3.org/1999/xlink" version="1.1"><g transform="translate(420.42719150687674 265.0596752629582)"><path d="M59.8 -94.9C70.5 -86.1 67.6 -57.8 92.4 -33.4C117.3 -9 170 11.5 167.6 23.6C165.1 35.8 107.5 39.5 73.4 44.4C39.3 49.3 28.6 55.3 10.1 83C-8.5 110.7 -34.9 159.9 -58 167C-81 174.2 -100.6 139.1 -106.5 106.6C-112.4 74.1 -104.7 44 -93.2 22.8C-81.7 1.5 -66.5 -10.9 -55.3 -21.1C-44.2 -31.3 -37.2 -39.2 -28.7 -49C-20.2 -58.7 -10.1 -70.4 7.2 -81.6C24.5 -92.8 49 -103.6 59.8 -94.9" fill="#BB004B"></path></g></svg>