<svg id="visual" viewBox="0 0 900 600" width="900" height="600" xmlns="http://www.w3.org/2000/svg" xmlns:xlink="http://www.w3.org/1999/xlink" version="1.1"><g transform="translate(435.6635079237735 281.75516598406796)"><path d="M54.4 -77.6C88.5 -62.7 146.6 -78.1 171.2 -65.9C195.8 -53.8 187 -14.1 165.6 12.5C144.2 39.1 110.3 52.6 89.4 78.4C68.5 104.2 60.8 142.3 37.6 166.9C14.4 191.6 -24.2 202.8 -61.3 197.2C-98.3 191.5 -133.8 169.1 -144.1 136.4C-154.4 103.8 -139.6 60.9 -141.4 22.7C-143.2 -15.5 -161.6 -48.9 -156.5 -76.2C-151.4 -103.6 -122.8 -125 -92.7 -141.8C-62.7 -158.6 -31.4 -170.8 -10.6 -154.3C10.1 -137.8 20.3 -92.6 54.4 -77.6" fill="#BB004B"></path></g></svg>