<svg id="visual" viewBox="0 0 900 600" width="900" height="600" xmlns="http://www.w3.org/2000/svg" xmlns:xlink="http://www.w3.org/1999/xlink" version="1.1"><g transform="translate(469.5526678410096 330.72779294740354)"><path d="M78.9 -167.9C95.1 -127.3 96.3 -91.8 120.3 -64.6C144.3 -37.5 191.1 -18.8 192.5 0.8C193.9 20.3 149.8 40.7 122.9 62.8C95.9 84.8 86.2 108.7 68.6 128.8C51 149 25.5 165.5 -5.8 175.6C-37.2 185.7 -74.3 189.4 -95.4 171.2C-116.5 153.1 -121.5 113 -149 80.9C-176.6 48.7 -226.8 24.3 -231.3 -2.6C-235.8 -29.5 -194.5 -59 -158.1 -75.9C-121.7 -92.8 -90.1 -97 -64.5 -132.3C-39 -167.5 -19.5 -233.8 5.9 -244C31.3 -254.3 62.7 -208.5 78.9 -167.9" fill="#aa51ad"></path></g></svg>