<svg id="visual" viewBox="0 0 900 600" width="900" height="600" xmlns="http://www.w3.org/2000/svg" xmlns:xlink="http://www.w3.org/1999/xlink" version="1.1"><g transform="translate(441.06791346879083 291.7988426070483)"><path d="M92.5 -172C108.7 -150.9 102.8 -103.4 118.1 -70.4C133.3 -37.3 169.7 -18.7 196.8 15.7C223.9 50 241.9 100 221.3 123.8C200.7 147.6 141.6 145.3 98.3 163.3C55 181.3 27.5 219.6 -4.2 227C-36 234.4 -72 210.7 -114.4 192.2C-156.9 173.7 -205.7 160.4 -211.7 129.2C-217.7 98 -180.9 49 -154.7 15.1C-128.5 -18.8 -113 -37.5 -112.5 -78.2C-112 -118.9 -126.5 -181.6 -110.2 -202.7C-94 -223.8 -47 -203.4 -4.4 -195.8C38.2 -188.1 76.3 -193.2 92.5 -172" fill="#aa51ad"></path></g></svg>